<svg xmlns="http://www.w3.org/2000/svg" width="1200" height="630" viewBox="0 0 1200 630" fill="none">
  <rect width="1200" height="630" fill="#010102"/>
  <rect y="0" width="1200" height="3" fill="url(#g)"/>
  <defs>
    <linearGradient id="g" x1="0" y1="0" x2="1200" y2="0">
      <stop stop-color="#5e6ad2" stop-opacity="0"/>
      <stop offset="0.45" stop-color="#5e6ad2"/>
      <stop offset="0.55" stop-color="#828fff"/>
      <stop offset="1" stop-color="#5e6ad2" stop-opacity="0"/>
    </linearGradient>
  </defs>
  <g transform="translate(72,72)">
    <rect width="48" height="48" rx="12" fill="#0a0a0b" stroke="#23252a"/>
    <path d="M12 18V12h6M36 18V12h-6M12 30v6h6M36 30v6h-6" stroke="#828fff" stroke-width="2.5" stroke-linecap="round"/>
    <rect x="16" y="28" width="3.5" height="8" rx="1" fill="#5e6ad2"/>
    <rect x="21.5" y="22" width="3.5" height="14" rx="1" fill="#5e6ad2"/>
    <rect x="27" y="18" width="3.5" height="18" rx="1" fill="#828fff"/>
    <rect x="32.5" y="24" width="3.5" height="12" rx="1" fill="#5e6ad2"/>
  </g>
  <text x="140" y="104" fill="#f7f8f8" font-family="ui-sans-serif,system-ui,sans-serif" font-size="28" font-weight="600">PreFrame</text>
  <text x="72" y="220" fill="#f7f8f8" font-family="ui-sans-serif,system-ui,sans-serif" font-size="58" font-weight="600">Work hard without</text>
  <text x="72" y="288" fill="#8a8f98" font-family="ui-sans-serif,system-ui,sans-serif" font-size="58" font-weight="600">freezing the page.</text>
  <text x="72" y="360" fill="#62666d" font-family="ui-sans-serif,system-ui,sans-serif" font-size="24">Adaptive cooperative scheduling for JavaScript</text>
  <rect x="72" y="420" width="280" height="72" rx="10" fill="#141516" stroke="#23252a"/>
  <text x="92" y="465" fill="#ff6b81" font-family="ui-monospace,Menlo,monospace" font-size="22">sync  ~2s block</text>
  <rect x="372" y="420" width="340" height="72" rx="10" fill="#141516" stroke="#2a3a2a"/>
  <text x="392" y="465" fill="#4ade80" font-family="ui-monospace,Menlo,monospace" font-size="22">preframe  ~8ms · 300×</text>
</svg>
